<?xml version="1.0" encoding="utf-8"?>

<!DOCTYPE svg PUBLIC "-//W3C//DTD SVG 1.1//EN" "http://www.w3.org/Graphics/SVG/1.1/DTD/svg11.dtd">
<!-- Uploaded to: SVG Repo, www.svgrepo.com, Generator: SVG Repo Mixer Tools -->
<svg height="800px" width="800px" version="1.1" id="_x32_" xmlns="http://www.w3.org/2000/svg" xmlns:xlink="http://www.w3.org/1999/xlink" 
	 viewBox="0 0 512 512"  xml:space="preserve">
<style type="text/css">
	.st0{fill:#000000;}
</style>
<g>
	<path class="st0" d="M256.004,0C114.609,0.015,0.019,114.612,0.004,256.007c0.015,141.38,114.605,255.977,256,255.993
		c141.387-0.016,255.976-114.613,255.992-255.993C511.98,114.612,397.391,0.015,256.004,0z M408.878,408.881
		c-39.187,39.156-93.108,63.31-152.874,63.326c-59.766-0.016-113.696-24.17-152.882-63.326
		c-39.155-39.194-63.318-93.116-63.326-152.874c0.008-59.766,24.171-113.696,63.326-152.889
		c39.186-39.155,93.116-63.318,152.882-63.326c59.766,0.008,113.688,24.17,152.874,63.326
		c39.155,39.194,63.317,93.124,63.325,152.889C472.196,315.766,448.033,369.688,408.878,408.881z"/>
	<path class="st0" d="M333.094,162.278c-30.552-21.979-54.854-5.184-77.09-5.184c-22.228,0-46.531-16.794-77.09,5.184
		c-30.552,21.964-30.808,66.396-12.497,118.926c16.662,47.836,28.491,70.165,30.559,80.416c4.166,20.689,30.552,20.689,36.1-1.298
		c3.024-11.93,2.099-54.559,22.928-54.559s19.904,42.629,22.927,54.559c5.55,21.987,31.935,21.987,36.101,1.298
		c2.067-10.251,13.896-32.58,30.559-80.416C363.902,228.674,363.646,184.242,333.094,162.278z"/>
</g>
</svg>