<?xml version="1.0" encoding="utf-8"?>
<!-- Uploaded to: SVG Repo, www.svgrepo.com, Generator: SVG Repo Mixer Tools -->
<svg width="800px" height="800px" viewBox="0 0 24 24" xmlns="http://www.w3.org/2000/svg">
<defs>
<style>.cls-1{fill:none;stroke:#020202;stroke-miterlimit:10;stroke-width:1.91px;}</style>
</defs>
<g id="dental">
<path class="cls-1" d="M1.5,8.18A6.68,6.68,0,0,1,12,2.7"/>
<path class="cls-1" d="M22.5,8.18A6.69,6.69,0,0,0,9.78,5.31"/>
<path class="cls-1" d="M22.5,8.18V9.6a17.35,17.35,0,0,1-1.32,6.63,17.27,17.27,0,0,1-3.75,5.61,2.25,2.25,0,0,1-3.82-1.25L13,16.54a1,1,0,0,0-2,0l-.62,4.05a2.25,2.25,0,0,1-3.82,1.25A17.27,17.27,0,0,1,1.5,9.6V8.18"/>
<line class="cls-1" x1="12" y1="8.18" x2="19.64" y2="8.18"/>
<line class="cls-1" x1="15.82" y1="4.36" x2="15.82" y2="12"/>
</g>
</svg>