<?xml version="1.0" encoding="utf-8"?>

<!DOCTYPE svg PUBLIC "-//W3C//DTD SVG 1.1//EN" "http://www.w3.org/Graphics/SVG/1.1/DTD/svg11.dtd">
<!-- Uploaded to: SVG Repo, www.svgrepo.com, Generator: SVG Repo Mixer Tools -->
<svg height="800px" width="800px" version="1.1" id="_x32_" xmlns="http://www.w3.org/2000/svg" xmlns:xlink="http://www.w3.org/1999/xlink" 
	 viewBox="0 0 512 512"  xml:space="preserve">
<style type="text/css">
	.st0{fill:#000000;}
</style>
<g>
	<path class="st0" d="M372.375,124.154c-18.606-13.446-37.399-17.981-53.561-17.907c-12.69,0.009-23.767,2.566-32.641,4.88
		c-4.433,1.157-8.324,2.24-11.468,2.986c-3.126,0.756-5.515,1.064-6.523,1.055c-1.017,0.009-3.406-0.299-6.541-1.055
		c-9.537-2.165-25.129-7.828-44.091-7.866c-16.162-0.074-34.964,4.451-53.561,17.907c-13.895,9.947-23.796,23.328-29.991,38.109
		c-6.215,14.799-8.893,31.008-8.893,47.43c0.103,37.951,13.978,77.376,36.159,106.004c16.301,20.92,37.988,31.801,57.733,37.297
		c19.801,5.516,38.109,5.954,49.185,5.963c11.076-0.009,29.376-0.447,49.167-5.963c19.763-5.496,41.449-16.376,57.751-37.297
		c22.171-28.619,36.048-68.054,36.159-106.004c-0.01-16.422-2.688-32.631-8.902-47.44
		C396.161,147.482,386.261,134.1,372.375,124.154z M354.889,299.955c-12.103,15.518-28.19,23.804-44.426,28.358
		c-16.181,4.545-32.082,5.039-42.281,5.03c-10.218,0.009-26.109-0.485-42.289-5.03c-16.228-4.554-32.324-12.84-44.436-28.358
		c-18.392-23.421-30.849-58.759-30.747-90.262c0-13.642,2.258-26.491,6.896-37.502c4.656-11.02,11.543-20.192,21.322-27.229
		c14.473-10.321,26.884-13.027,38.622-13.101c9.191,0,17.944,1.885,26.175,4.05c4.124,1.064,8.09,2.202,12.056,3.135
		c3.985,0.914,7.922,1.708,12.401,1.726c4.47-0.018,8.417-0.811,12.392-1.726c11.767-2.855,24.401-7.223,38.24-7.186
		c11.729,0.074,24.139,2.8,38.622,13.101c9.769,7.036,16.647,16.209,21.312,27.229c4.638,10.992,6.906,23.86,6.886,37.502
		C385.748,241.196,373.281,276.534,354.889,299.955z"/>
	<polygon class="st0" points="223.391,370.948 212.726,370.948 223.391,399.792 314.046,399.792 324.72,370.948 314.046,370.948 	
		"/>
	<polygon class="st0" points="238.667,512 299.684,512 306.87,492.591 231.491,492.591 	"/>
	<polygon class="st0" points="227.246,411.436 217.495,424.622 227.246,437.817 310.183,437.817 319.943,424.622 310.183,411.436 	
		"/>
	<polygon class="st0" points="227.246,450.712 217.495,463.888 227.246,477.064 310.183,477.064 319.943,463.888 310.183,450.712 	
		"/>
	<path class="st0" d="M448.752,49.558l-36.234-9.601c-0.942-0.205-1.717-0.971-1.922-1.922l-9.555-36.224
		C400.79,0.756,399.856,0,398.765,0c-1.092,0-2.026,0.756-2.277,1.811l-9.555,36.224c-0.215,0.952-0.98,1.717-1.932,1.922
		l-36.224,9.601c-1.064,0.215-1.81,1.148-1.81,2.24c0,1.092,0.746,2.034,1.81,2.24l36.224,9.602c0.952,0.196,1.717,0.97,1.932,1.922
		l9.555,36.224c0.251,1.064,1.185,1.81,2.277,1.81c1.091,0,2.025-0.746,2.276-1.81l9.555-36.224c0.206-0.952,0.98-1.726,1.922-1.922
		l36.234-9.602c1.055-0.206,1.811-1.148,1.811-2.24C450.563,50.707,449.807,49.773,448.752,49.558z"/>
	<path class="st0" d="M279.258,208.528l-33.089-8.772c-0.868-0.186-1.567-0.877-1.754-1.754l-8.724-33.08
		c-0.234-0.961-1.083-1.652-2.081-1.652c-0.999,0-1.848,0.691-2.081,1.652l-8.715,33.08c-0.206,0.877-0.896,1.568-1.764,1.754
		l-33.089,8.772c-0.97,0.186-1.651,1.054-1.651,2.043c0,0.998,0.682,1.858,1.651,2.044l33.089,8.772
		c0.868,0.186,1.558,0.886,1.764,1.754l8.715,33.089c0.233,0.97,1.082,1.642,2.081,1.642c0.998,0,1.847-0.672,2.081-1.642
		l8.724-33.089c0.188-0.868,0.887-1.568,1.754-1.754l33.089-8.772c0.961-0.186,1.652-1.046,1.652-2.044
		C280.91,209.582,280.219,208.714,279.258,208.528z"/>
	<path class="st0" d="M141.65,91.186c0-0.84-0.57-1.577-1.4-1.735l-28.05-7.438c-0.727-0.158-1.334-0.756-1.492-1.483l-7.4-28.05
		c-0.196-0.821-0.914-1.4-1.764-1.4c-0.84,0-1.568,0.579-1.764,1.4l-7.39,28.05c-0.168,0.727-0.765,1.324-1.494,1.483l-28.049,7.438
		c-0.83,0.158-1.41,0.895-1.41,1.735c0,0.849,0.579,1.568,1.41,1.735l28.049,7.428c0.728,0.158,1.326,0.756,1.494,1.492l7.39,28.05
		c0.196,0.821,0.924,1.4,1.764,1.4c0.85,0,1.568-0.579,1.764-1.4l7.4-28.05c0.158-0.737,0.765-1.334,1.492-1.492l28.05-7.428
		C141.08,92.754,141.65,92.035,141.65,91.186z"/>
</g>
</svg>