<!DOCTYPE svg PUBLIC "-//W3C//DTD SVG 1.1//EN" "http://www.w3.org/Graphics/SVG/1.1/DTD/svg11.dtd">
<!-- Uploaded to: SVG Repo, www.svgrepo.com, Transformed by: SVG Repo Mixer Tools -->
<svg width="800px" height="800px" viewBox="0 0 24 24" fill="none" xmlns="http://www.w3.org/2000/svg">
<g id="SVGRepo_bgCarrier" stroke-width="0"/>
<g id="SVGRepo_tracerCarrier" stroke-linecap="round" stroke-linejoin="round"/>
<g id="SVGRepo_iconCarrier"> <path fill-rule="evenodd" clip-rule="evenodd" d="M10.4688 18.4759C9.10334 19.8414 6.88952 19.8414 5.52408 18.4759C4.15864 17.1105 4.15864 14.8967 5.52408 13.5312L8.99734 10.058L13.942 15.0027L10.4688 18.4759ZM15.0027 13.942L18.4759 10.4688C19.8414 9.10334 19.8414 6.88952 18.4759 5.52408C17.1105 4.15864 14.8967 4.15864 13.5312 5.52408L10.058 8.99731L15.0027 13.942ZM4.46342 19.5366C6.41465 21.4878 9.57821 21.4878 11.5294 19.5366L19.5366 11.5294C21.4878 9.57821 21.4878 6.41465 19.5366 4.46342C17.5854 2.51219 14.4218 2.51219 12.4706 4.46342L4.46342 12.4706C2.51219 14.4218 2.51219 17.5854 4.46342 19.5366Z" fill="#000000"/> </g>
</svg>