<?xml version="1.0" encoding="utf-8"?>

<!DOCTYPE svg PUBLIC "-//W3C//DTD SVG 1.1//EN" "http://www.w3.org/Graphics/SVG/1.1/DTD/svg11.dtd">
<!-- Uploaded to: SVG Repo, www.svgrepo.com, Generator: SVG Repo Mixer Tools -->
<svg height="800px" width="800px" version="1.1" id="_x32_" xmlns="http://www.w3.org/2000/svg" xmlns:xlink="http://www.w3.org/1999/xlink" 
	 viewBox="0 0 512 512"  xml:space="preserve">
<style type="text/css">
	.st0{fill:#000000;}
</style>
<g>
	<path class="st0" d="M460.881,84.986c-8.967-22.589-23.177-42.376-42.734-57.463C391.778,6.952,365.122-0.148,341.543,0.002
		c-18.036,0.024-34.171,3.688-48.439,6.926c-14.29,3.32-26.76,6.108-37.109,6.062c-10.326,0.046-22.797-2.742-37.087-6.062
		c-14.268-3.238-30.402-6.902-48.426-6.926c-23.58-0.15-50.248,6.938-76.605,27.532C74.296,42.62,60.098,62.397,51.143,84.986
		c-8.978,22.611-12.92,47.965-12.943,75.233c0.022,41.765,9.219,88.222,25.204,137.548c16.492,50.893,30.644,88.314,41.098,115.523
		c5.22,13.588,9.507,24.628,12.653,33.353c3.146,8.667,5.105,15.143,5.763,18.751c2.57,13.944,9.012,25.804,18.198,34.031
		c9.162,8.229,20.906,12.597,32.638,12.574c12.125,0.012,24.19-4.587,33.825-13.058c9.67-8.47,16.85-20.698,20.307-35.496
		c1.003-4.344,1.648-8.909,2.294-14.048c1.083-8.943,2.051-19.523,3.434-30.402c2.029-16.261,5.267-33.272,10.096-44.232
		c2.327-5.498,5.001-9.243,6.984-10.972c2.109-1.729,2.834-2.005,5.301-2.144c1.935,0.058,2.719,0.346,4.01,1.13
		c2.19,1.268,5.935,5.798,8.989,13.588c4.703,11.537,7.745,28.754,9.692,44.958c1.003,8.113,1.787,16.019,2.57,23.118
		c0.83,7.156,1.567,13.333,2.881,19.004c3.458,14.798,10.604,27.026,20.284,35.496c9.635,8.494,21.724,13.07,33.837,13.058
		c11.744,0.022,23.487-4.345,32.638-12.585c9.197-8.217,15.627-20.076,18.21-34.021c0.646-3.608,2.604-10.084,5.761-18.751
		c9.474-26.299,29.02-72.617,53.752-148.876c15.974-49.315,25.17-95.783,25.182-137.548
		C473.8,132.963,469.858,107.597,460.881,84.986z M415.543,287.049c-16.25,50.12-30.103,86.758-40.475,113.784
		c-5.209,13.529-9.519,24.639-12.907,33.997c-3.366,9.404-5.854,16.952-7.215,24.156c-1.452,7.56-4.356,11.917-7.26,14.532
		c-2.927,2.616-6.062,3.677-9.427,3.723c-3.458-0.024-7.215-1.233-10.903-4.426c-3.641-3.216-7.294-8.575-9.381-17.334
		c-0.46-1.959-1.06-5.717-1.625-10.314c-0.991-8.114-1.993-18.959-3.468-30.575c-2.294-17.518-5.44-36.765-12.631-53.614
		c-3.666-8.413-8.425-16.48-15.721-23.072c-7.168-6.603-17.562-11.156-28.534-11.018c-8.299-0.046-16.423,2.466-22.889,6.696
		c-11.386,7.538-17.724,18.544-22.335,29.815c-6.799,17.056-9.773,36.36-11.94,53.67c-1.072,8.632-1.867,16.722-2.627,23.498
		c-0.738,6.732-1.521,12.309-2.167,14.914c-2.075,8.759-5.74,14.106-9.382,17.31c-3.688,3.216-7.444,4.426-10.902,4.426
		c-3.364-0.022-6.488-1.106-9.427-3.7c-2.904-2.615-5.797-6.972-7.25-14.52c-1.371-7.216-3.848-14.764-7.226-24.168
		c-10.095-27.936-28.972-72.525-53.382-147.781c-7.676-23.66-4.679-12.078-8.655-33.514l5.901-33.433l55.077,27.532l3.93-53.106
		h55.077l-33.433-49.164l35.404-37.375l-47.205-5.901l2.939-41.304L97.645,75.536c0,0,0.91-2.167,2.016-5.175
		c4.564-5.567,9.589-10.752,15.478-15.316c21.09-16.135,38.09-20.122,55.342-20.272c13.172-0.012,26.599,2.801,40.681,6.051
		c14.072,3.18,28.766,6.868,44.832,6.926c16.088-0.058,30.77-3.746,44.854-6.926c14.083-3.25,27.521-6.062,40.694-6.051
		c17.23,0.15,34.216,4.15,55.341,20.272c14.43,11.178,24.676,25.274,31.682,42.79c6.972,17.484,10.476,38.47,10.476,62.384
		C439.065,196.833,430.778,240.154,415.543,287.049z"/>
</g>
</svg>